<svg width="16" height="17" viewBox="0 0 16 17" fill="none" xmlns="http://www.w3.org/2000/svg">
<path d="M14 14.2001H2C1.46957 14.2001 0.960859 13.9894 0.585786 13.6143C0.210714 13.2392 0 12.7305 0 12.2001V4.20007C0 3.66964 0.210714 3.16093 0.585786 2.78586C0.960859 2.41079 1.46957 2.20007 2 2.20007H14C14.5304 2.20007 15.0391 2.41079 15.4142 2.78586C15.7893 3.16093 16 3.66964 16 4.20007V12.2001C16 12.7305 15.7893 13.2392 15.4142 13.6143C15.0391 13.9894 14.5304 14.2001 14 14.2001ZM2 3.20007C1.73478 3.20007 1.48043 3.30543 1.29289 3.49297C1.10536 3.6805 1 3.93486 1 4.20007V12.2001C1 12.4653 1.10536 12.7196 1.29289 12.9072C1.48043 13.0947 1.73478 13.2001 2 13.2001H14C14.2652 13.2001 14.5196 13.0947 14.7071 12.9072C14.8946 12.7196 15 12.4653 15 12.2001V4.20007C15 3.93486 14.8946 3.6805 14.7071 3.49297C14.5196 3.30543 14.2652 3.20007 14 3.20007H2Z" fill="#032E72"/>
<path d="M7.99999 9.20012C7.8879 9.20009 7.77908 9.16241 7.69099 9.09312L0.690985 3.59312C0.638136 3.55298 0.593806 3.50272 0.560581 3.44527C0.527356 3.38782 0.5059 3.32433 0.497464 3.2585C0.489028 3.19268 0.493781 3.12583 0.511446 3.06186C0.529111 2.99789 0.559334 2.93807 0.600353 2.8859C0.641373 2.83373 0.692367 2.79025 0.750364 2.75799C0.808361 2.72573 0.8722 2.70534 0.938159 2.69801C1.00412 2.69067 1.07088 2.69655 1.13454 2.71528C1.19821 2.73401 1.25751 2.76523 1.30899 2.80712L7.99999 8.06412L14.691 2.80712C14.7425 2.76523 14.8018 2.73401 14.8654 2.71528C14.9291 2.69655 14.9959 2.69067 15.0618 2.69801C15.1278 2.70534 15.1916 2.72573 15.2496 2.75799C15.3076 2.79025 15.3586 2.83373 15.3996 2.8859C15.4406 2.93807 15.4709 2.99789 15.4885 3.06186C15.5062 3.12583 15.5109 3.19268 15.5025 3.2585C15.4941 3.32433 15.4726 3.38782 15.4394 3.44527C15.4062 3.50272 15.3618 3.55298 15.309 3.59312L8.30899 9.09312C8.22089 9.16241 8.11207 9.20009 7.99999 9.20012Z" fill="#032E72"/>
</svg>
