<svg width="16" height="17" viewBox="0 0 16 17" fill="none" xmlns="http://www.w3.org/2000/svg">
<g clip-path="url(#clip0_1_374)">
<path d="M15.669 11.9152L13.2718 9.51884C13.1673 9.41353 13.0429 9.33004 12.9058 9.27321C12.7688 9.21638 12.6218 9.18735 12.4734 9.1878H12.4722C12.1705 9.1878 11.8868 9.30587 11.6738 9.51884L10.0757 11.1164L5.28088 6.32313L6.87896 4.72556C7.31973 4.28493 7.31973 3.56749 6.87839 3.12686L4.48071 0.730502C4.37607 0.625399 4.25162 0.542076 4.11457 0.485352C3.97752 0.428627 3.83057 0.399627 3.68224 0.400029C3.37991 0.400029 3.09567 0.518095 2.88263 0.731632L0.484949 3.12855C0.412052 3.20086 -0.21972 3.88441 0.0803433 5.38651C0.434091 7.15412 1.91463 9.35162 4.48071 11.9169C8.15324 15.5882 10.4696 16.4006 11.8003 16.4006C12.7214 16.4006 13.1713 16.0114 13.2718 15.9108L15.669 13.5145C15.8826 13.3009 16.0007 13.0168 16.0001 12.7145C16.0001 12.4129 15.8826 12.1287 15.669 11.9152ZM12.4728 15.1115C12.457 15.1273 10.5464 16.382 5.27975 11.1175C-0.100486 5.73958 1.28625 3.92677 1.28399 3.92734L3.68167 1.52985L6.07935 3.92734L4.08176 5.9243C4.02923 5.97672 3.98756 6.03897 3.95913 6.10751C3.9307 6.17604 3.91607 6.2495 3.91607 6.3237C3.91607 6.39789 3.9307 6.47135 3.95913 6.53988C3.98756 6.60842 4.02923 6.67067 4.08176 6.72309L9.6756 12.3152C9.72803 12.3677 9.79031 12.4093 9.85886 12.4377C9.92741 12.4662 10.0009 12.4808 10.0751 12.4808C10.1493 12.4808 10.2228 12.4662 10.2914 12.4377C10.3599 12.4093 10.4222 12.3677 10.4746 12.3152L12.4722 10.3176L14.8699 12.7151L12.4728 15.1115Z" fill="#032E72"/>
</g>
<defs>
<clipPath id="clip0_1_374">
<rect width="16" height="16" fill="white" transform="translate(0 0.400024)"/>
</clipPath>
</defs>
</svg>
