<svg width="24" height="25" viewBox="0 0 24 25" fill="none" xmlns="http://www.w3.org/2000/svg">
<path d="M20.2917 18.8466H7.74707L7.48147 17.7606H21.6975L24 7.72953L5.21809 5.47808L4.35763 0.455566H0V2.35304H2.75759L5.80386 18.8883C5.22685 18.9831 4.69303 19.2533 4.27495 19.6622C3.85688 20.071 3.57484 20.5987 3.46718 21.1734C3.35952 21.7482 3.43145 22.3421 3.6732 22.8746C3.91495 23.407 4.31479 23.8521 4.81837 24.1493C5.32195 24.4465 5.90483 24.5815 6.4878 24.5358C7.07076 24.4901 7.62551 24.266 8.07665 23.894C8.52779 23.522 8.85343 23.02 9.0093 22.4565C9.16517 21.8929 9.14371 21.2949 8.94784 20.744H17.615C17.4154 21.3122 17.4017 21.9292 17.5759 22.5057C17.7502 23.0822 18.1033 23.5883 18.5842 23.9509C19.0651 24.3134 19.6489 24.5136 20.2511 24.5224C20.8533 24.5313 21.4427 24.3483 21.934 24C22.4253 23.6517 22.7931 23.1561 22.9842 22.585C23.1752 22.0138 23.1796 21.3967 22.9968 20.8229C22.8139 20.2491 22.4532 19.7483 21.9669 19.393C21.4806 19.0377 20.8939 18.8464 20.2916 18.8466H20.2917ZM5.55244 7.4289L21.6783 9.36199L20.1861 15.8634H7.06464L5.55244 7.4289Z" fill="#032E72"/>
</svg>
