<svg width="24" height="25" viewBox="0 0 24 25" fill="none" xmlns="http://www.w3.org/2000/svg">
<path d="M12 0.5C9.62663 0.5 7.30655 1.20379 5.33316 2.52236C3.35977 3.84094 1.8217 5.71509 0.913451 7.9078C0.00519937 10.1005 -0.232441 12.5133 0.230582 14.8411C0.693605 17.1689 1.83649 19.3071 3.51472 20.9853C5.19295 22.6635 7.33115 23.8064 9.65892 24.2694C11.9867 24.7324 14.3995 24.4948 16.5922 23.5866C18.7849 22.6783 20.6591 21.1402 21.9776 19.1668C23.2962 17.1935 24 14.8734 24 12.5C24 9.3174 22.7357 6.26516 20.4853 4.01472C18.2349 1.76428 15.1826 0.5 12 0.5ZM12 23C10.5311 22.9967 9.07931 22.6853 7.73832 22.0859C6.39734 21.4864 5.19704 20.6123 4.21501 19.52C4.84643 18.7175 5.75677 18.182 6.76501 18.02C7.41665 17.9126 8.06247 17.7724 8.70001 17.6C9.20148 17.5345 9.68265 17.3604 10.11 17.09C10.0939 16.705 9.95161 16.3361 9.70501 16.04C9.07024 15.5194 8.56214 14.8614 8.21912 14.1156C7.87609 13.3698 7.70713 12.5557 7.72501 11.735C7.62445 10.4906 8.01582 9.25628 8.8151 8.29716C9.61437 7.33803 10.7578 6.73051 12 6.605C13.2449 6.72684 14.3921 7.33279 15.1945 8.29233C15.9969 9.25186 16.3904 10.4882 16.29 11.735C16.3113 12.5584 16.1439 13.3757 15.8008 14.1245C15.4576 14.8733 14.9476 15.5336 14.31 16.055C14.0625 16.3447 13.9198 16.7093 13.905 17.09C14.3375 17.3295 14.8104 17.4871 15.3 17.555C15.9325 17.7084 16.5737 17.8236 17.22 17.9C17.7426 17.9594 18.248 18.1227 18.7065 18.3803C19.165 18.6379 19.5674 18.9846 19.89 19.4C18.9071 20.5274 17.6948 21.4318 16.334 22.0526C14.9733 22.6735 13.4957 22.9965 12 23Z" fill="#032E72"/>
</svg>
